# xmcd
#
# Track frame offsets:
#	150
#	18260
#	30583
#	48095
#	69305
#	88906
#	99940
#	128009
#	138054
#	160570
#	170277
#	186563
#	197619
#	209303
#	222527
#	234672
#	244214
#	261344
#
# Disc length: 3689 seconds
#
# Revision: 0
# Processed by: cddbd v1.5.2PL0 Copyright (c) Steve Scherf et al.
# Submitted via: EasyCDDAExtractor 16.0.8.2
#
DISCID=f40e6712
DTITLE=Συλλογικός δίσκος - Αιγαίο 3 Μέσ' στου Αιγαίου νησιά
DYEAR=1900
DGENRE=Παραδοσιακή
TTITLE0=Χορωδία - Νυφικάτο(Σήμερα γάμος γίν.)[Λήμνος]
TTITLE1=Άγνωστος - Πήραν τα κρίταμα φωτιά [Λήμνος]
TTITLE2=Άγνωστος - Κεχαγιάδικος [Λήμνος]
TTITLE3=Άγνωστος - Η μέρα έχει βάσανα [Ρόδος]
TTITLE4=Άγνωστος - Κρητικός-Μπονιάτικη σούστα [Ρόδος]
TTITLE5=Άνευ ερμηνευτού - Σούστα Ρόδου [Ρόδος]
TTITLE6=Άγνωστος - Χίλια καλώς την ηύραμε [Τήλος]
TTITLE7=Άγνωστος - Μανές [Τήλος]
TTITLE8=Άγνωστος - Ο Απελλής κι ο Ραφαήλ [Σύμη]
TTITLE9=Άνευ ερμηνευτού - Ζερβοδεξός Σύμης [Σύμη]
TTITLE10=Άνευ ερμηνευτού - Αποστολίτικο [Νίσυρος]
TTITLE11=Άνευ ερμηνευτού - Ποταμός [Νίσυρος]
TTITLE12=Άγνωστος - Της Βλάχας [Χάλκη]
TTITLE13=Άγνωστος - Χαρκίτικος [Χάλκη]
TTITLE14=Άγνωστος - Γιαέλι [Κάσος]
TTITLE15=Άγνωστος - Παπάς [Κάσος]
TTITLE16=Άνευ ερμηνευτού - Σούστα κασιώτικη [Κάσος]
TTITLE17=Άγνωστος - Μικρό μου Καστελλόριζο [Καστελλόριζο]
EXTD=
EXTT0=
EXTT1=
EXTT2=
EXTT3=
EXTT4=
EXTT5=
EXTT6=
EXTT7=
EXTT8=
EXTT9=
EXTT10=
EXTT11=
EXTT12=
EXTT13=
EXTT14=
EXTT15=
EXTT16=
EXTT17=
PLAYORDER=
